<?xml version="1.0" standalone="no"?>
<!DOCTYPE svg PUBLIC "-//W3C//DTD SVG 20010904//EN"
 "http://www.w3.org/TR/2001/REC-SVG-20010904/DTD/svg10.dtd">
<svg version="1.0" xmlns="http://www.w3.org/2000/svg"
 width="1378.000000pt" height="1378.000000pt" viewBox="0 0 1378.000000 1378.000000"
 preserveAspectRatio="xMidYMid meet">
<metadata>
Created by potrace 1.14, written by Peter Selinger 2001-2017
</metadata>
<g transform="translate(0.000000,1378.000000) scale(0.100000,-0.100000)"
fill="#000000" stroke="none">
<path d="M6285 9849 c-98 -8 -176 -18 -235 -30 -25 -5 -58 -12 -74 -15 -72
-14 -270 -81 -356 -121 -19 -9 -37 -15 -39 -14 -2 2 -7 -1 -10 -6 -3 -4 -28
-19 -56 -32 -27 -14 -79 -42 -114 -63 -34 -21 -67 -38 -72 -38 -5 0 -9 -4 -9
-8 0 -5 -10 -13 -22 -19 -24 -11 -177 -125 -230 -171 -76 -66 -248 -247 -248
-261 0 -4 -10 -17 -22 -29 -30 -27 -50 -52 -43 -52 3 0 -3 -10 -15 -22 -11
-12 -20 -25 -20 -29 0 -4 -6 -14 -13 -21 -16 -16 -106 -177 -131 -233 -28 -64
-53 -127 -55 -138 0 -4 -7 -23 -15 -42 -8 -19 -13 -35 -11 -35 2 0 -2 -18 -10
-40 -8 -22 -14 -42 -15 -45 0 -3 0 -6 -1 -7 -3 -10 -15 -81 -25 -143 -3 -16
-8 -41 -11 -55 -9 -46 -11 -374 -2 -450 9 -74 11 -88 24 -165 12 -73 54 -229
79 -295 81 -214 132 -321 170 -362 14 -15 26 -29 26 -32 0 -2 -13 -33 -29 -68
-77 -168 -83 -185 -137 -398 -32 -127 -37 -159 -36 -258 0 -62 5 -118 10 -125
5 -7 15 -43 22 -81 28 -150 88 -273 200 -406 158 -189 264 -268 527 -392 278
-131 397 -155 633 -128 66 8 102 18 165 49 157 78 246 135 316 199 26 25 39
19 59 -33 7 -19 17 -35 22 -35 4 0 8 -6 8 -13 0 -7 8 -22 18 -33 10 -10 23
-27 28 -36 28 -49 186 -217 239 -254 63 -44 161 -85 291 -121 76 -21 255 -25
364 -8 47 8 110 16 140 19 57 5 77 8 197 26 149 21 225 62 328 173 67 72 199
283 263 419 31 64 63 176 66 228 1 19 6 24 21 22 54 -8 108 -4 150 13 119 45
198 98 305 205 91 91 107 111 160 205 19 33 36 62 39 65 12 10 71 138 90 195
20 60 75 273 85 330 3 17 8 41 11 55 14 51 14 196 1 246 -16 62 -22 70 -178
230 l-47 49 35 2 c19 1 56 12 82 25 42 21 51 32 92 112 l45 90 -2 145 c-4 216
-30 497 -54 578 -40 133 -43 143 -50 143 -4 0 -22 26 -40 58 -18 31 -52 83
-76 115 -24 31 -43 60 -43 62 0 10 -138 145 -148 145 -6 0 -12 4 -14 8 -1 4
-25 18 -53 31 -81 38 -168 35 -280 -9 -16 -6 -32 -11 -34 -10 -2 1 -7 -2 -10
-7 -3 -4 -24 -21 -46 -38 -22 -16 -45 -34 -51 -40 -16 -15 -79 -107 -95 -138
-15 -27 -15 -27 -43 60 -16 49 -37 107 -47 130 -11 23 -19 44 -19 48 0 3 -10
27 -21 53 -12 26 -28 63 -37 82 -34 78 -81 172 -92 185 -7 8 -10 15 -6 15 3 0
-5 18 -19 40 -14 22 -25 42 -25 45 0 19 -126 191 -180 245 -79 78 -89 86 -183
147 -39 27 -75 52 -78 56 -3 5 -9 8 -13 7 -3 0 -36 14 -73 31 -101 48 -294
115 -418 144 -5 1 -21 5 -35 9 -14 4 -36 8 -50 10 -14 2 -32 6 -40 9 -17 6
-73 15 -195 32 -116 16 -347 23 -460 14z m2012 -2224 c-23 -22 -33 -18 -12 5
10 11 20 18 23 16 2 -3 -3 -12 -11 -21z m-2647 -145 c0 -5 -2 -10 -4 -10 -3 0
-8 5 -11 10 -3 6 -1 10 4 10 6 0 11 -4 11 -10z m14 -28 c3 -5 -1 -9 -9 -9 -8
0 -12 4 -9 9 3 4 7 8 9 8 2 0 6 -4 9 -8z m3 -37 c0 -8 -4 -12 -9 -9 -5 3 -6
10 -3 15 9 13 12 11 12 -6z m18 -35 c-3 -5 -11 -10 -16 -10 -6 0 -7 5 -4 10 3
6 11 10 16 10 6 0 7 -4 4 -10z m218 -25 c-7 -21 -12 -19 -10 4 0 11 5 18 9 15
4 -3 5 -11 1 -19z m-213 -19 c0 -3 -4 -8 -10 -11 -5 -3 -10 -1 -10 4 0 6 5 11
10 11 6 0 10 -2 10 -4z m18 -121 c-3 -3 -9 2 -12 12 -6 14 -5 15 5 6 7 -7 10
-15 7 -18z m189 -87 c-3 -8 -6 -5 -6 6 -1 11 2 17 5 13 3 -3 4 -12 1 -19z
m-147 -122 c0 -3 -4 -8 -10 -11 -5 -3 -10 -1 -10 4 0 6 5 11 10 11 6 0 10 -2
10 -4z m30 -765 c0 -5 -7 -12 -16 -15 -14 -5 -15 -4 -4 9 14 17 20 19 20 6z"/>
</g>
</svg>
